<svg xmlns="http://www.w3.org/2000/svg" viewBox="11.5 0 52.25 52.25"><defs><style>#city-logo path{fill:#0075c9}</style></defs><g id="city-logo"><path d="M56.06 4.33h3.26v3.26h-3.26z"/><path d="M41.2 3.61c0 2-1.62 3.62-3.62 3.62s-3.61-1.62-3.61-3.62S35.59 0 37.58 0s3.62 1.62 3.62 3.61"/><path d="M41.2 48.5c0-2-1.62-3.62-3.62-3.62s-3.62 1.62-3.62 3.62 1.62 3.62 3.62 3.62 3.62-1.62 3.62-3.62"/><path d="M60.03 29.67c-2 0-3.62-1.62-3.62-3.62s1.62-3.62 3.62-3.62 3.62 1.62 3.62 3.62-1.62 3.62-3.62 3.62"/><path d="M15.14 29.68c2 0 3.62-1.62 3.62-3.62s-1.62-3.62-3.62-3.62-3.62 1.62-3.62 3.62 1.62 3.62 3.62 3.62"/><path d="M15.87 4.33h3.26v3.26h-3.26z"/><path d="M15.87 44.52h3.26v3.26h-3.26z"/><path d="M56.07 44.53h3.26v3.26h-3.26z"/><path d="M42.61 4.33c-.35 2.46-2.46 4.34-5.02 4.34s-4.67-1.89-5.02-4.34H20.21V6.5l6.51 2.17 6.51 6.52v4.35l4.35 4.35 4.34-4.35v-4.35l6.52-6.51 6.52-2.17V4.34H42.59z"/><path d="M54.98 45.61l-6.51-2.17-6.51-6.52v-4.35l-4.34-4.34-4.35 4.34v4.35l-6.51 6.51-6.51 2.17v2.17H32.6c.34-2.47 2.46-4.36 5.02-4.36s4.68 1.9 5.02 4.36h12.37V45.6z"/><path d="M31.08 21.71h-4.35l-6.51-6.52h-.01l-2.17-6.51h-2.17v11.58l5.79 5.79-5.79 5.79v11.6h2.17l2.17-6.51v-.01h.01l6.51-6.51v-.01h4.35l4.34-4.34-4.34-4.35z"/><path d="M59.33 20.24V8.68h-2.18l-2.17 6.51-6.52 6.52h-4.34l-4.35 4.35 4.35 4.34h4.34v.01l6.52 6.51 2.17 6.52h2.18V31.86l-5.81-5.81 5.81-5.81z"/></g></svg>